<svg version="1.1" xmlns="http://www.w3.org/2000/svg" xmlns:xlink="http://www.w3.org/1999/xlink" width="800" height="800"><defs/><g transform="scale(2,2)"><g id="background-44bae654"><rect fill="white" stroke="none" x="0" y="0" width="400" height="400" class="dcg-svg-background"/></g><g id="background-images-44bae654"/><g id="graphpaper-44bae654"><g id="grid-44bae654"><g><path fill="none" stroke="rgb(0,0,0)" class="dcg-svg-minor-gridline" paint-order="fill stroke markers" d=" M 19.5 0 L 19.5 400" stroke-opacity="0.2" stroke-miterlimit="10" stroke-dasharray=""/><path fill="none" stroke="rgb(0,0,0)" class="dcg-svg-minor-gridline" paint-order="fill stroke markers" d=" M 63.5 0 L 63.5 400" stroke-opacity="0.2" stroke-miterlimit="10" stroke-dasharray=""/><path fill="none" stroke="rgb(0,0,0)" class="dcg-svg-minor-gridline" paint-order="fill stroke markers" d=" M 85.5 0 L 85.5 400" stroke-opacity="0.2" stroke-miterlimit="10" stroke-dasharray=""/><path fill="none" stroke="rgb(0,0,0)" class="dcg-svg-minor-gridline" paint-order="fill stroke markers" d=" M 106.5 0 L 106.5 400" stroke-opacity="0.2" stroke-miterlimit="10" stroke-dasharray=""/><path fill="none" stroke="rgb(0,0,0)" class="dcg-svg-minor-gridline" paint-order="fill stroke markers" d=" M 128.5 0 L 128.5 400" stroke-opacity="0.2" stroke-miterlimit="10" stroke-dasharray=""/><path fill="none" stroke="rgb(0,0,0)" class="dcg-svg-minor-gridline" paint-order="fill stroke markers" d=" M 150.5 0 L 150.5 400" stroke-opacity="0.2" stroke-miterlimit="10" stroke-dasharray=""/><path fill="none" stroke="rgb(0,0,0)" class="dcg-svg-minor-gridline" paint-order="fill stroke markers" d=" M 172.5 0 L 172.5 400" stroke-opacity="0.2" stroke-miterlimit="10" stroke-dasharray=""/><path fill="none" stroke="rgb(0,0,0)" class="dcg-svg-minor-gridline" paint-order="fill stroke markers" d=" M 194.5 0 L 194.5 400" stroke-opacity="0.2" stroke-miterlimit="10" stroke-dasharray=""/><path fill="none" stroke="rgb(0,0,0)" class="dcg-svg-minor-gridline" paint-order="fill stroke markers" d=" M 216.5 0 L 216.5 400" stroke-opacity="0.2" stroke-miterlimit="10" stroke-dasharray=""/><path fill="none" stroke="rgb(0,0,0)" class="dcg-svg-minor-gridline" paint-order="fill stroke markers" d=" M 237.5 0 L 237.5 400" stroke-opacity="0.2" stroke-miterlimit="10" stroke-dasharray=""/><path fill="none" stroke="rgb(0,0,0)" class="dcg-svg-minor-gridline" paint-order="fill stroke markers" d=" M 259.5 0 L 259.5 400" stroke-opacity="0.2" stroke-miterlimit="10" stroke-dasharray=""/><path fill="none" stroke="rgb(0,0,0)" class="dcg-svg-minor-gridline" paint-order="fill stroke markers" d=" M 281.5 0 L 281.5 400" stroke-opacity="0.2" stroke-miterlimit="10" stroke-dasharray=""/><path fill="none" stroke="rgb(0,0,0)" class="dcg-svg-minor-gridline" paint-order="fill stroke markers" d=" M 303.5 0 L 303.5 400" stroke-opacity="0.2" stroke-miterlimit="10" stroke-dasharray=""/><path fill="none" stroke="rgb(0,0,0)" class="dcg-svg-minor-gridline" paint-order="fill stroke markers" d=" M 325.5 0 L 325.5 400" stroke-opacity="0.2" stroke-miterlimit="10" stroke-dasharray=""/><path fill="none" stroke="rgb(0,0,0)" class="dcg-svg-minor-gridline" paint-order="fill stroke markers" d=" M 347.5 0 L 347.5 400" stroke-opacity="0.2" stroke-miterlimit="10" stroke-dasharray=""/><path fill="none" stroke="rgb(0,0,0)" class="dcg-svg-minor-gridline" paint-order="fill stroke markers" d=" M 368.5 0 L 368.5 400" stroke-opacity="0.2" stroke-miterlimit="10" stroke-dasharray=""/><path fill="none" stroke="rgb(0,0,0)" class="dcg-svg-minor-gridline" paint-order="fill stroke markers" d=" M 390.5 0 L 390.5 400" stroke-opacity="0.2" stroke-miterlimit="10" stroke-dasharray=""/><path fill="none" stroke="rgb(0,0,0)" class="dcg-svg-minor-gridline" paint-order="fill stroke markers" d=" M 0 388.5 L 400 388.5" stroke-opacity="0.2" stroke-miterlimit="10" stroke-dasharray=""/><path fill="none" stroke="rgb(0,0,0)" class="dcg-svg-minor-gridline" paint-order="fill stroke markers" d=" M 0 366.5 L 400 366.5" stroke-opacity="0.2" stroke-miterlimit="10" stroke-dasharray=""/><path fill="none" stroke="rgb(0,0,0)" class="dcg-svg-minor-gridline" paint-order="fill stroke markers" d=" M 0 344.5 L 400 344.5" stroke-opacity="0.2" stroke-miterlimit="10" stroke-dasharray=""/><path fill="none" stroke="rgb(0,0,0)" class="dcg-svg-minor-gridline" paint-order="fill stroke markers" d=" M 0 323.5 L 400 323.5" stroke-opacity="0.2" stroke-miterlimit="10" stroke-dasharray=""/><path fill="none" stroke="rgb(0,0,0)" class="dcg-svg-minor-gridline" paint-order="fill stroke markers" d=" M 0 279.5 L 400 279.5" stroke-opacity="0.2" stroke-miterlimit="10" stroke-dasharray=""/><path fill="none" stroke="rgb(0,0,0)" class="dcg-svg-minor-gridline" paint-order="fill stroke markers" d=" M 0 257.5 L 400 257.5" stroke-opacity="0.2" stroke-miterlimit="10" stroke-dasharray=""/><path fill="none" stroke="rgb(0,0,0)" class="dcg-svg-minor-gridline" paint-order="fill stroke markers" d=" M 0 235.5 L 400 235.5" stroke-opacity="0.2" stroke-miterlimit="10" stroke-dasharray=""/><path fill="none" stroke="rgb(0,0,0)" class="dcg-svg-minor-gridline" paint-order="fill stroke markers" d=" M 0 213.5 L 400 213.5" stroke-opacity="0.2" stroke-miterlimit="10" stroke-dasharray=""/><path fill="none" stroke="rgb(0,0,0)" class="dcg-svg-minor-gridline" paint-order="fill stroke markers" d=" M 0 192.5 L 400 192.5" stroke-opacity="0.2" stroke-miterlimit="10" stroke-dasharray=""/><path fill="none" stroke="rgb(0,0,0)" class="dcg-svg-minor-gridline" paint-order="fill stroke markers" d=" M 0 170.5 L 400 170.5" stroke-opacity="0.2" stroke-miterlimit="10" stroke-dasharray=""/><path fill="none" stroke="rgb(0,0,0)" class="dcg-svg-minor-gridline" paint-order="fill stroke markers" d=" M 0 148.5 L 400 148.5" stroke-opacity="0.2" stroke-miterlimit="10" stroke-dasharray=""/><path fill="none" stroke="rgb(0,0,0)" class="dcg-svg-minor-gridline" paint-order="fill stroke markers" d=" M 0 126.5 L 400 126.5" stroke-opacity="0.2" stroke-miterlimit="10" stroke-dasharray=""/><path fill="none" stroke="rgb(0,0,0)" class="dcg-svg-minor-gridline" paint-order="fill stroke markers" d=" M 0 104.5 L 400 104.5" stroke-opacity="0.2" stroke-miterlimit="10" stroke-dasharray=""/><path fill="none" stroke="rgb(0,0,0)" class="dcg-svg-minor-gridline" paint-order="fill stroke markers" d=" M 0 82.5 L 400 82.5" stroke-opacity="0.2" stroke-miterlimit="10" stroke-dasharray=""/><path fill="none" stroke="rgb(0,0,0)" class="dcg-svg-minor-gridline" paint-order="fill stroke markers" d=" M 0 60.5 L 400 60.5" stroke-opacity="0.2" stroke-miterlimit="10" stroke-dasharray=""/><path fill="none" stroke="rgb(0,0,0)" class="dcg-svg-minor-gridline" paint-order="fill stroke markers" d=" M 0 39.5 L 400 39.5" stroke-opacity="0.2" stroke-miterlimit="10" stroke-dasharray=""/><path fill="none" stroke="rgb(0,0,0)" class="dcg-svg-minor-gridline" paint-order="fill stroke markers" d=" M 0 17.5 L 400 17.5" stroke-opacity="0.2" stroke-miterlimit="10" stroke-dasharray=""/><path fill="none" stroke="rgb(0,0,0)" class="dcg-svg-major-gridline" paint-order="fill stroke markers" d=" M 150.5 0 L 150.5 400" stroke-opacity="0.2500000000000001" stroke-miterlimit="10" stroke-dasharray=""/><path fill="none" stroke="rgb(0,0,0)" class="dcg-svg-major-gridline" paint-order="fill stroke markers" d=" M 259.5 0 L 259.5 400" stroke-opacity="0.2500000000000001" stroke-miterlimit="10" stroke-dasharray=""/><path fill="none" stroke="rgb(0,0,0)" class="dcg-svg-major-gridline" paint-order="fill stroke markers" d=" M 368.5 0 L 368.5 400" stroke-opacity="0.2500000000000001" stroke-miterlimit="10" stroke-dasharray=""/><path fill="none" stroke="rgb(0,0,0)" class="dcg-svg-major-gridline" paint-order="fill stroke markers" d=" M 0 192 L 400 192" stroke-opacity="0.2500000000000001" stroke-miterlimit="10" stroke-dasharray=""/><path fill="none" stroke="rgb(0,0,0)" class="dcg-svg-major-gridline" paint-order="fill stroke markers" d=" M 0 83 L 400 83" stroke-opacity="0.2500000000000001" stroke-miterlimit="10" stroke-dasharray=""/></g></g><g id="axis-44bae654"><g id="yaxis-44bae654"><title>Y axis</title><g><path fill="none" stroke="rgb(0,0,0)" class="dcg-svg-axis-line" paint-order="fill stroke markers" d=" M 41 0 L 41 400" stroke-opacity="0.9" stroke-miterlimit="10" stroke-width="1.5" stroke-dasharray=""/></g></g><g id="xaxis-44bae654"><title>X axis</title><g><path fill="none" stroke="rgb(0,0,0)" class="dcg-svg-axis-line" paint-order="fill stroke markers" d=" M 0 301 L 400 301" stroke-opacity="0.9" stroke-miterlimit="10" stroke-width="1.5" stroke-dasharray=""/></g></g><g><g class="dcg-svg-axis-value"><text fill="none" stroke="#ffffff" font-family="Arial" font-size="14px" font-style="normal" font-weight="normal" text-decoration="normal" x="32.38582551306227" y="317.01535080752285" text-anchor="middle" stroke-miterlimit="2" stroke-width="3" stroke-dasharray="">0</text><text fill="#000000" stroke="none" font-family="Arial" font-size="14px" font-style="normal" font-weight="normal" text-decoration="normal" x="32.38582551306227" y="317.01535080752285" text-anchor="middle">0</text></g><g class="dcg-svg-axis-value"><text fill="none" stroke="#ffffff" font-family="Arial" font-size="14px" font-style="normal" font-weight="normal" text-decoration="normal" x="150.5902614276447" y="317.01535080752285" text-anchor="middle" stroke-miterlimit="2" stroke-width="3" stroke-dasharray="">1</text><text fill="#000000" stroke="none" font-family="Arial" font-size="14px" font-style="normal" font-weight="normal" text-decoration="normal" x="150.5902614276447" y="317.01535080752285" text-anchor="middle">1</text></g><g class="dcg-svg-axis-value"><text fill="none" stroke="#ffffff" font-family="Arial" font-size="14px" font-style="normal" font-weight="normal" text-decoration="normal" x="259.7946973422271" y="317.01535080752285" text-anchor="middle" stroke-miterlimit="2" stroke-width="3" stroke-dasharray="">2</text><text fill="#000000" stroke="none" font-family="Arial" font-size="14px" font-style="normal" font-weight="normal" text-decoration="normal" x="259.7946973422271" y="317.01535080752285" text-anchor="middle">2</text></g><g class="dcg-svg-axis-value"><text fill="none" stroke="#ffffff" font-family="Arial" font-size="14px" font-style="normal" font-weight="normal" text-decoration="normal" x="368.99913325680956" y="317.01535080752285" text-anchor="middle" stroke-miterlimit="2" stroke-width="3" stroke-dasharray="">3</text><text fill="#000000" stroke="none" font-family="Arial" font-size="14px" font-style="normal" font-weight="normal" text-decoration="normal" x="368.99913325680956" y="317.01535080752285" text-anchor="middle">3</text></g><g class="dcg-svg-axis-value"><text fill="none" stroke="#ffffff" font-family="Arial" font-size="14px" font-style="normal" font-weight="normal" text-decoration="normal" x="32.38582551306227" y="195.81091489294045" text-anchor="middle" stroke-miterlimit="2" stroke-width="3" stroke-dasharray="">1</text><text fill="#000000" stroke="none" font-family="Arial" font-size="14px" font-style="normal" font-weight="normal" text-decoration="normal" x="32.38582551306227" y="195.81091489294045" text-anchor="middle">1</text></g><g class="dcg-svg-axis-value"><text fill="none" stroke="#ffffff" font-family="Arial" font-size="14px" font-style="normal" font-weight="normal" text-decoration="normal" x="32.38582551306227" y="86.60647897835806" text-anchor="middle" stroke-miterlimit="2" stroke-width="3" stroke-dasharray="">2</text><text fill="#000000" stroke="none" font-family="Arial" font-size="14px" font-style="normal" font-weight="normal" text-decoration="normal" x="32.38582551306227" y="86.60647897835806" text-anchor="middle">2</text></g></g></g></g><g id="expressions-44bae654"><g id="sketch-44bae654"><title>Expression 4</title><path fill="#2d70b3" stroke="none" paint-order="stroke fill markers" d="" fill-opacity="0.4"/><g><path fill="none" stroke="#2d70b3" class="dcg-svg-curve" paint-order="fill stroke markers" d=" M 41.38582551306227 301.20735080752286 L 41.38582551306227 301.20735080752286 L 48.220256012857334 301.07545630048844 L 55.05468651265238 300.68009137745025 L 61.889117012447436 300.022211063013 L 68.72354751224249 299.1034045014094 L 75.65561273346319 297.9072082851621 L 82.68531267610953 296.42541757513777 L 89.81264734018153 294.6506271686325 L 97.1352514471048 292.54642442798763 L 104.5554902754537 290.1297997333437 L 112.17099854665392 287.35912658309365 L 119.98177626070542 284.22041566543214 L 128.08545813903385 280.65664495209757 L 136.48204418163917 276.6466587859134 L 145.17153438852145 272.172064692394 L 154.25156348110636 267.16223546615424 L 163.8197661808194 261.5367857406291 L 173.8761424876607 255.27007233768413 L 184.71359656590715 248.1472704504815 L 196.4297631369844 240.06481583061122 L 209.415181086595 230.71079511480713 L 224.2556587432928 219.61228482845308 L 242.80625581416513 205.31243346719637 L 259.7946973422271 192.00291489294045" stroke-linecap="round" stroke-linejoin="round" stroke-miterlimit="10" stroke-width="2.5" stroke-opacity="0.9" stroke-dasharray=""/></g></g><g id="sketch-44bae654"><title>Expression 5</title><path fill="#2d70b3" stroke="none" paint-order="stroke fill markers" d="" fill-opacity="0.4"/><g><path fill="none" stroke="#2d70b3" class="dcg-svg-curve" paint-order="fill stroke markers" d=" M 41.38582551306226 301.20735080752286 L 41.38582551306226 301.20735080752286 L 41.50390625000001 294.74078168045344 L 41.89453125 287.78133026454486 L 42.48046875 281.5037773480437 L 43.26171875000001 275.3982444005388 L 44.23828125 269.3577055593638 L 45.41015625 263.34261881433974 L 46.77734375 257.33367885645646 L 48.4375 250.96655220628887 L 50.29296875 244.66009521988596 L 52.44140625 238.10145903436066 L 54.78515625000001 231.60388504713723 L 57.42187499999999 224.901545486316 L 60.3515625 218.02603279406486 L 63.57421875000001 210.99791963392965 L 67.1875 203.63727872335693 L 71.19140625 195.98524762002955 L 75.58593750000001 188.0698404503023 L 80.46875 179.74655952305287 L 85.83984375 171.04803231463816 L 91.79687500000001 161.84639020511193 L 98.43750000000001 152.0263600958295 L 105.85937500000001 141.47800459109482 L 114.35546875000001 129.825519597761 L 124.41406250000001 116.45474836541104 L 137.20703125000003 99.88148189712439 L 150.5902614276447 82.79847897835805" stroke-linecap="round" stroke-linejoin="round" stroke-miterlimit="10" stroke-width="2.5" stroke-opacity="0.9" stroke-dasharray=""/></g></g><g id="sketch-44bae654"><title>Expression 6</title><path fill="#c74440" stroke="none" paint-order="stroke fill markers" d="" fill-opacity="0.4"/><g><path fill="none" stroke="#c74440" class="dcg-svg-curve" paint-order="fill stroke markers" d=" M 41.38582551306227 301.20735080752286 L 41.38582551306227 301.20735080752286 L 72.33603220499131 277.09935608645054 L 88.93393484735073 264.5867519737269 L 102.89570001121777 254.45795760267524 L 115.19767491084887 245.9203532784871 L 126.4256678747979 238.5039728246872 L 136.87258306734176 231.96955044463581 L 146.73368993133178 226.15936688020136 L 156.0089884667679 221.03820100806936 L 164.89374811650148 216.46678790112 L 173.3879688805325 212.41948987512515 L 181.58928548028655 208.82591884284454 L 189.4976979157637 205.66486048579952 L 197.21084090838954 202.87942669505816 L 204.72871445816412 200.4555572114649 L 212.05131856508737 198.37768503370788 L 219.276287950585 196.6069515303954 L 226.40362261465697 195.1367928739943 L 233.43332255730334 193.95970536524757 L 240.36538777852402 193.06734570437578 L 247.19981827831907 192.45062872868655 L 254.03424877811415 192.0966192909308 L 259.7946973422271 192.00291489294045" stroke-linecap="round" stroke-linejoin="round" stroke-miterlimit="10" stroke-width="2.5" stroke-opacity="0.9" stroke-dasharray=""/></g></g><g id="sketch-44bae654"><title>Expression 7</title><path fill="#c74440" stroke="none" paint-order="stroke fill markers" d="" fill-opacity="0.4"/><g><path fill="none" stroke="#c74440" class="dcg-svg-curve" paint-order="fill stroke markers" d=" M 41.38582551306227 301.20735080752286 L 41.38582551306227 301.20735080752286 L 63.67187500000001 272.6311260599131 L 75.1953125 257.44060950995527 L 84.47265625000001 244.81408885099114 L 92.38281250000001 233.6489857520496 L 99.31640625000001 223.45919051170955 L 105.46875000000001 214.01028989877665 L 111.03515625 205.0416607801291 L 116.01562500000001 196.59062285742718 L 120.5078125 188.53303550058936 L 124.60937500000001 180.72149519862302 L 128.3203125 173.1796282904577 L 131.64062500000003 165.9433903694653 L 134.66796875000003 158.8261758289036 L 137.3046875 152.09955737104653 L 139.6484375 145.57320649358158 L 141.796875 138.97845302733668 L 143.65234375 132.62796041184316 L 145.3125 126.20299646254404 L 146.6796875 120.12092467526168 L 147.85156250000003 114.00384138847306 L 148.828125 107.81061271746358 L 149.51171875 102.35636947581594 L 150.09765625 96.01016155946934 L 150.39062500000003 91.20722692437425 L 150.5859375 84.03580999133453 L 150.5902614276447 82.79847897835805" stroke-linecap="round" stroke-linejoin="round" stroke-miterlimit="10" stroke-width="2.5" stroke-opacity="0.9" stroke-dasharray=""/></g></g><g id="sketch-44bae654"><title>Expression 10</title><path fill="#388c46" stroke="none" paint-order="stroke fill markers" d="" fill-opacity="0.4"/><g><path fill="none" stroke="#388c46" class="dcg-svg-curve" paint-order="fill stroke markers" d=" M 41.38582551306227 301.20735080752286 L 41.38582551306227 301.20735080752286 L 46.169926862918814 301.0781191728215 L 50.95402821277535 300.69103599534816 L 55.835764284057525 300.03216254197605 L 60.815135076765365 299.08886433967996 L 65.89214059089883 297.8500218932294 L 71.06678082645794 296.3063066350218 L 76.43669050486834 294.413468919953 L 82.00186962613004 292.1511336870936 L 87.762318190243 289.50238264157093 L 93.8156709186329 286.40213705983695 L 100.25956253272538 282.77113745416125 L 107.28926247537173 278.4570862565446 L 114.90477074657193 273.41780567128154 L 123.49662623202859 267.3498584748302 L 133.74827198172116 259.70379632552624 L 148.19821075271642 248.48347439065225 L 170.36129251633753 231.28546455467978 L 180.8082077088814 223.61228187393365 L 189.4976979157637 217.61763780340434 L 197.21084090838954 212.67266282260402 L 204.2405408510359 208.52780606988134 L 210.78206718655403 205.019366096602 L 216.8354199149439 202.09986458824903 L 222.59586847905686 199.63444685579526 L 228.16104760031857 197.55852842182492 L 233.53095727872898 195.8530982167508 L 238.7055975142881 194.49591759401414 L 243.78260302842156 193.44474835763526 L 248.6643390997037 192.70119541495072 L 253.5460751709859 192.22331694078179 L 258.33017652084243 192.01502964481097 L 259.7946973422271 192.00291489294045" stroke-linecap="round" stroke-linejoin="round" stroke-miterlimit="10" stroke-width="2.5" stroke-opacity="0.9" stroke-dasharray=""/></g></g><g id="sketch-44bae654"><title>Expression 11</title><path fill="#388c46" stroke="none" paint-order="stroke fill markers" d="" fill-opacity="0.4"/><g><path fill="none" stroke="#388c46" class="dcg-svg-curve" paint-order="fill stroke markers" d=" M 41.385825513062265 301.20735080752286 L 41.385825513062265 301.20735080752286 L 41.50390625000001 296.6343836447229 L 41.89453125 291.710025108924 L 42.48046875 287.26311283338805 L 43.26171875000001 282.93116371357206 L 44.23828125 278.6364578632357 L 45.50781250000001 274.02078796908506 L 46.97265625 269.4833797711391 L 48.73046875 264.73124531815427 L 50.78125 259.8147968095551 L 53.12500000000001 254.7605085242254 L 55.859375 249.39723007739553 L 58.984375 243.77044044513164 L 62.500000000000014 237.90416914939084 L 66.6015625 231.51144192192632 L 71.38671875 224.49648135250243 L 77.05078125 216.62617378431045 L 84.08203125 207.2848918905721 L 94.43359375000001 193.98236918745053 L 110.05859375000001 173.8832869344651 L 117.08984375000001 164.4170648042914 L 122.65625000000001 156.52839564674048 L 127.34375000000001 149.47674565657874 L 131.34765625 143.03101488304435 L 134.765625 137.09755951582758 L 137.6953125 131.5718998866056 L 140.234375 126.32359310725798 L 142.3828125 121.41123719420602 L 144.23828125000003 116.66634273015637 L 145.80078125 112.13450705316916 L 147.16796875 107.54326522692566 L 148.2421875 103.2608002717713 L 149.12109375 98.96231991584551 L 149.80468750000003 94.60565013473973 L 150.29296875 90.0565232366614 L 150.48828125000003 87.04815436827909 L 150.5902614276447 82.79847897835805" stroke-linecap="round" stroke-linejoin="round" stroke-miterlimit="10" stroke-width="2.5" stroke-opacity="0.9" stroke-dasharray=""/></g></g><g id="sketch-44bae654"><title>Expression 12</title><path fill="#6042a6" stroke="none" paint-order="stroke fill markers" d="" fill-opacity="0.4"/><g><path fill="none" stroke="#6042a6" class="dcg-svg-curve" paint-order="fill stroke markers" d=" M 41.38582551306227 301.20735080752286 L 41.38582551306227 301.20735080752286 L 259.7946973422271 192.00291489294045" stroke-linecap="round" stroke-linejoin="round" stroke-miterlimit="10" stroke-width="2.5" stroke-opacity="0.9" stroke-dasharray=""/></g></g><g id="sketch-44bae654"><title>Expression 13</title><path fill="#6042a6" stroke="none" paint-order="stroke fill markers" d="" fill-opacity="0.4"/><g><path fill="none" stroke="#6042a6" class="dcg-svg-curve" paint-order="fill stroke markers" d=" M 41.38582551306227 301.20735080752286 L 41.38582551306227 301.20735080752286 L 150.5902614276447 82.79847897835805" stroke-linecap="round" stroke-linejoin="round" stroke-miterlimit="10" stroke-width="2.5" stroke-opacity="0.9" stroke-dasharray=""/></g></g></g><g id="labels-44bae654"/></g></svg>