<?xml version="1.0" encoding="UTF-8" standalone="no"?>
<!-- Created with Inkscape (http://www.inkscape.org/) -->

<svg
   width="512.0px"
   height="512.0px"
   viewBox="0 0 512.0 512.0"
   version="1.1"
   id="SVGRoot"
   sodipodi:docname="icon.svg"
   xml:space="preserve"
   inkscape:export-filename="bitmap.svg"
   inkscape:export-xdpi="96"
   inkscape:export-ydpi="96"
   inkscape:version="1.2 (dc2aedaf03, 2022-05-15)"
   xmlns:inkscape="http://www.inkscape.org/namespaces/inkscape"
   xmlns:sodipodi="http://sodipodi.sourceforge.net/DTD/sodipodi-0.dtd"
   xmlns="http://www.w3.org/2000/svg"
   xmlns:svg="http://www.w3.org/2000/svg"><sodipodi:namedview
     id="namedview261"
     pagecolor="#ffffff"
     bordercolor="#cccccc"
     borderopacity="1"
     inkscape:showpageshadow="0"
     inkscape:pageopacity="0"
     inkscape:pagecheckerboard="true"
     inkscape:deskcolor="#d1d1d1"
     inkscape:document-units="px"
     showgrid="false"
     inkscape:zoom="1.2227488"
     inkscape:cx="213.45349"
     inkscape:cy="241.6686"
     inkscape:window-width="1920"
     inkscape:window-height="991"
     inkscape:window-x="2391"
     inkscape:window-y="-9"
     inkscape:window-maximized="1"
     inkscape:current-layer="g663"
     showguides="true"><inkscape:grid
       type="xygrid"
       id="grid384" /></sodipodi:namedview><defs
     id="defs256" /><g
     inkscape:label="Layer 1"
     inkscape:groupmode="layer"
     id="layer1"><g
       transform="matrix(2,0,0,2,144.7868,-209)"
       id="g663"><g
         id="background-images-44bae654" /><rect
         style="fill:#e6e6e6;fill-opacity:1;stroke:none;stroke-width:0.56693;stroke-linecap:round;stroke-linejoin:round"
         id="rect1222"
         width="256"
         height="256"
         x="-72.393402"
         y="-360.5"
         transform="scale(1,-1)"
         ry="48.875" /><rect
         style="fill:#fc9f4d;fill-opacity:1;stroke:none;stroke-width:0.56693;stroke-linecap:round;stroke-linejoin:round"
         id="rect1222-0"
         width="97.750008"
         height="97.75"
         x="183.6066"
         y="-360.5"
         transform="scale(1,-1)"
         ry="0" /><g
         id="labels-44bae654" /><g
         id="g10309"
         style="fill:none;fill-opacity:0.33333334"><path
           fill="none"
           stroke="#2d70b3"
           class="dcg-svg-curve"
           paint-order="fill stroke markers"
           d="m -18.821188,313.48103 v 0 l 4.873714,-0.0941 4.8737153,-0.28194 4.8737144,-0.46914 4.87371518,-0.65522 4.94333912,-0.85301 5.012964,-1.05669 5.082588,-1.26562 5.221837,-1.50054 5.291462,-1.72332 5.430712,-1.9758 5.569961,-2.23825 5.778832,-2.54137 5.987703,-2.85957 6.19658,-3.19089 6.475079,-3.57256 6.823206,-4.01158 7.171318,-4.46887 7.728324,-5.07936 8.354935,-5.76369 9.260059,-6.67046 10.58293,-7.91449 13.22865,-10.1974 12.11466,-9.49118"
           stroke-linecap="round"
           stroke-linejoin="round"
           stroke-miterlimit="10"
           stroke-width="2.5"
           stroke-opacity="0.9"
           stroke-dasharray="none"
           id="path3713"
           style="stroke:#0b346e;stroke-opacity:1;fill:none;fill-opacity:0.33333334" /><path
           fill="none"
           stroke="#2d70b3"
           class="dcg-svg-curve"
           paint-order="fill stroke markers"
           d="m -18.821188,313.48103 v 0 l 0.0842,-4.61139 0.278559,-4.96287 0.41784,-4.4766 0.557119,-4.35393 0.696398,-4.30758 0.835678,-4.28943 0.974958,-4.28505 1.183877,-4.54047 1.323158,-4.49721 1.532076,-4.67704 1.6713565,-4.6335 1.8802761,-4.77952 2.0891951,-4.90302 2.2981156,-5.01183 2.57667423,-5.24896 2.85523367,-5.45675 3.1337938,-5.64458 3.4819921,-5.93543 3.8301919,-6.20302 4.248031,-6.5618 4.735509,-7.00279 5.292633,-7.52216 6.058664,-8.30952 7.172902,-9.53486 9.122821,-11.8186 9.543743,-12.18209"
           stroke-linecap="round"
           stroke-linejoin="round"
           stroke-miterlimit="10"
           stroke-width="2.5"
           stroke-opacity="0.9"
           stroke-dasharray="none"
           id="path3715"
           style="stroke:#0b346e;stroke-opacity:1;fill:none;fill-opacity:0.33333334" /><path
           fill="none"
           stroke="#c74440"
           class="dcg-svg-curve"
           paint-order="fill stroke markers"
           d="m -18.821188,313.48103 v 0 l 22.0709648,-17.1917 11.8361652,-8.92289 9.956303,-7.22297 8.772683,-6.08827 8.006822,-5.28871 7.449817,-4.65977 7.032077,-4.14331 6.614328,-3.65197 6.33583,-3.25993 6.05733,-2.88618 5.848461,-2.56262 5.639582,-2.25419 5.500333,-1.98632 5.361084,-1.72849 5.221838,-1.48175 5.15222,-1.26274 5.08258,-1.04839 5.01297,-0.83939 4.94334,-0.63635 4.87371,-0.43979 4.87372,-0.25245 4.10784,-0.0668"
           stroke-linecap="round"
           stroke-linejoin="round"
           stroke-miterlimit="10"
           stroke-width="2.5"
           stroke-opacity="0.9"
           stroke-dasharray="none"
           id="path3717"
           style="stroke:#8e354a;stroke-opacity:1;fill:none;fill-opacity:0.33333334" /><path
           fill="none"
           stroke="#c74440"
           class="dcg-svg-curve"
           paint-order="fill stroke markers"
           d="m -18.821188,313.48103 v 0 l 15.8924499,-20.37805 8.2175019,-10.83254 6.6157862,-9.00413 5.640828,-7.96196 4.944429,-7.26647 4.387311,-6.73813 3.969474,-6.39564 3.551633,-6.02653 3.203428,-5.74596 2.924879,-5.57051 2.646309,-5.37819 2.36776,-5.16025 2.158833,-5.07537 1.880276,-4.79684 1.671357,-4.65402 1.532071,-4.7028 1.323158,-4.52861 1.18388,-4.58172 0.97496,-4.3372 0.835675,-4.36216 0.696396,-4.41647 0.487484,-3.88949 0.417841,-4.52555 0.20892,-3.42503 0.139278,-5.11403 0.0029,-0.88235"
           stroke-linecap="round"
           stroke-linejoin="round"
           stroke-miterlimit="10"
           stroke-width="2.5"
           stroke-opacity="0.9"
           stroke-dasharray="none"
           id="path3719"
           style="stroke:#8e354a;stroke-opacity:1;fill:none;fill-opacity:0.33333334" /><path
           fill="none"
           stroke="#388c46"
           class="dcg-svg-curve"
           paint-order="fill stroke markers"
           d="m -18.821188,313.48103 v 0 l 3.4116,-0.0922 3.4116,-0.27603 3.4812247,-0.46986 3.5508495,-0.67267 3.6204742,-0.88344 3.6900982,-1.10083 3.8293476,-1.34981 3.9685958,-1.6133 4.107845,-1.88886 4.316719,-2.21082 4.595215,-2.58931 5.012964,-3.0764 5.430712,-3.59357 6.126959,-4.32713 7.310568,-5.4525 10.304427,-8.00135 15.804759,-12.26411 7.449825,-5.47183 6.19658,-4.27485 5.500333,-3.52633 5.012964,-2.95574 4.664848,-2.50191 4.31671,-2.08194 4.10785,-1.75811 3.9686,-1.48037 3.82934,-1.21616 3.6901,-0.96782 3.62047,-0.7496 3.48123,-0.53024 3.48123,-0.34078 3.4116,-0.14853 1.04436,-0.009"
           stroke-linecap="round"
           stroke-linejoin="round"
           stroke-miterlimit="10"
           stroke-width="2.5"
           stroke-opacity="0.9"
           stroke-dasharray="none"
           id="path3721"
           style="stroke:#36563c;stroke-opacity:1;fill:none;fill-opacity:0.33333334" /><path
           fill="none"
           stroke="#388c46"
           class="dcg-svg-curve"
           paint-order="fill stroke markers"
           d="m -18.821188,313.48103 v 0 l 0.0842,-3.26104 0.278559,-3.51162 0.41784,-3.17115 0.557119,-3.08916 0.696398,-3.06261 0.905318,-3.29149 1.044597,-3.23568 1.253518,-3.3888 1.462437,-3.50598 1.671356,-3.60427 1.949916,-3.82462 2.2284752,-4.01254 2.5070346,-4.1833 2.92487328,-4.55874 3.41235312,-5.00245 4.039111,-5.61241 5.0140688,-6.66138 7.381825,-9.48619 11.142373,-14.3329 5.014069,-6.75048 3.969474,-5.6255 3.342713,-5.02861 2.855236,-4.59654 2.437389,-4.23121 2.089197,-3.94042 1.810634,-3.74263 1.532079,-3.50306 1.323158,-3.38364 1.114238,-3.23171 0.974959,-3.27406 0.766039,-3.05389 0.626755,-3.06529 0.487483,-3.1068 0.348198,-3.24403 0.139278,-2.14531 0.07272,-3.03049"
           stroke-linecap="round"
           stroke-linejoin="round"
           stroke-miterlimit="10"
           stroke-width="2.5"
           stroke-opacity="0.9"
           stroke-dasharray="none"
           id="path3723"
           style="stroke:#36563c;stroke-opacity:1;fill:none;fill-opacity:0.33333334" /><path
           fill="none"
           stroke="#6042a6"
           class="dcg-svg-curve"
           paint-order="fill stroke markers"
           d="m -18.821188,313.48103 v 0 L 136.92881,235.60602"
           stroke-linecap="round"
           stroke-linejoin="round"
           stroke-miterlimit="10"
           stroke-width="2.5"
           stroke-opacity="0.9"
           stroke-dasharray="none"
           id="path3725"
           style="fill:none;fill-opacity:0.33333334;stroke:#261e47;stroke-opacity:1" /><path
           fill="none"
           stroke="#6042a6"
           class="dcg-svg-curve"
           paint-order="fill stroke markers"
           d="m -18.821188,313.48103 v 0 l 77.874999,-155.75"
           stroke-linecap="round"
           stroke-linejoin="round"
           stroke-miterlimit="10"
           stroke-width="2.5"
           stroke-opacity="0.9"
           stroke-dasharray="none"
           id="path3727"
           style="fill:none;fill-opacity:0.33333334;stroke:#261e47;stroke-opacity:1" /></g></g></g></svg>
